<svg width="756" height="724" viewBox="0 0 756 724" fill="none" xmlns="http://www.w3.org/2000/svg">
<path d="M584.378 723.489C575.4 723.489 566.467 720.733 558.778 715.244L378 585.6L197.222 715.244C189.732 720.633 180.731 723.517 171.504 723.485C162.278 723.453 153.297 720.507 145.844 715.067C138.385 709.658 132.821 702.035 129.945 693.281C127.068 684.528 127.025 675.09 129.822 666.311L197.244 448.711L18.0889 322.467C10.664 316.987 5.1499 309.312 2.32646 300.526C-0.496979 291.741 -0.486802 282.29 2.35555 273.511C5.22033 264.753 10.765 257.117 18.206 251.682C25.6469 246.247 34.6078 243.287 43.8222 243.222L265.711 242.889L336.356 30.6888C339.271 21.9472 344.863 14.3442 352.339 8.95672C359.815 3.5692 368.796 0.670166 378.011 0.670166C387.226 0.670166 396.208 3.5692 403.684 8.95672C411.16 14.3442 416.751 21.9472 419.667 30.6888L489.111 242.889L712.133 243.222C721.359 243.274 730.333 246.232 737.781 251.675C745.23 257.119 750.774 264.771 753.625 273.544C756.477 282.318 756.491 291.767 753.666 300.55C750.841 309.332 745.321 317.001 737.889 322.467L558.733 448.711L626.156 666.311C628.958 675.088 628.921 684.525 626.048 693.279C623.175 702.033 617.614 709.657 610.156 715.067C602.68 720.55 593.648 723.501 584.378 723.489Z" fill="#FFAC33" fill-opacity="0.3"/>
</svg>
